<svg width="100" height="100" viewBox="0 0 100 100" xmlns="http://www.w3.org/2000/svg">
  <!-- Dark background -->
  <rect width="100" height="100" fill="#2a2a2a"/>
  
  <!-- Left M pillar -->
  <rect x="10" y="15" width="20" height="70" fill="#2a2a2a" stroke="#000" stroke-width="3" rx="2"/>
  
  <!-- Right M pillar -->
  <rect x="70" y="15" width="20" height="70" fill="#2a2a2a" stroke="#000" stroke-width="3" rx="2"/>
  
  <!-- Gold rectangles in left pillar -->
  <rect x="13" y="20" width="6" height="6" fill="#FFD700" rx="1"/>
  <rect x="21" y="20" width="6" height="6" fill="#FFD700" rx="1"/>
  <rect x="13" y="70" width="6" height="6" fill="#FFD700" rx="1"/>
  <rect x="21" y="70" width="6" height="6" fill="#FFD700" rx="1"/>
  
  <!-- Gold rectangles in right pillar -->
  <rect x="73" y="20" width="6" height="6" fill="#FFD700" rx="1"/>
  <rect x="81" y="20" width="6" height="6" fill="#FFD700" rx="1"/>
  <rect x="73" y="70" width="6" height="6" fill="#FFD700" rx="1"/>
  <rect x="81" y="70" width="6" height="6" fill="#FFD700" rx="1"/>
  
  <!-- Central chevron/arrow pointing down -->
  <path d="M 40 25 L 50 45 L 60 25 L 50 35 Z" fill="#FFD700" stroke="#000" stroke-width="2" stroke-linejoin="round"/>
  
  <!-- M connecting lines -->
  <path d="M 30 15 L 40 25" stroke="#000" stroke-width="3" stroke-linecap="round"/>
  <path d="M 60 25 L 70 15" stroke="#000" stroke-width="3" stroke-linecap="round"/>
  
  <!-- Additional structural lines for the M -->
  <path d="M 20 30 L 30 40 L 40 30" stroke="#000" stroke-width="2" fill="none" stroke-linecap="round"/>
  <path d="M 60 30 L 70 40 L 80 30" stroke="#000" stroke-width="2" fill="none" stroke-linecap="round"/>
</svg> 